# xmcd
# 
# Track frame offsets:
#     150
#     19802
#     45515
#     64620
#     84497
#     108147
#     128785
#     144962
#     157240
#     176330
#     194985
# 
# Disc length: 2830
# 
# Revision: 7
# Processed by: cddbd v1.5.2PL0 Copyright (c) Steve Scherf et al.
# Submitted via: BonkEnc v1.0.8
# 
DISCID=910b0c0b
DTITLE=忌野清志郎 - Memphis
DYEAR=1992
DGENRE=R&B
TTITLE0=Boys
TTITLE1=雪どけ
TTITLE2=カモナ・ベイビー
TTITLE3=世間知らず
TTITLE4=高齢化社会
TTITLE5=ママ プリーズ カムバック
TTITLE6=石井さん
TTITLE7=ぼくの目は猫の目
TTITLE8=ラッキー・ボーイ
TTITLE9=彼女の笑顔
TTITLE10=MTN
EXTD=YEAR: 1992
EXTT0=
EXTT1=
EXTT2=
EXTT3=
EXTT4=
EXTT5=
EXTT6=
EXTT7=
EXTT8=
EXTT9=
EXTT10=
PLAYORDER=
